Coordinates
version=1
nRows=14
nColumns=36
inDegrees=yes

Units are S.I. units (second, meters, Newtons, ...)
If the header above contains a line with 'inDegrees', this indicates whether rotational values are in degrees (yes) or radians (no).

endheader
time	pelvis_tilt	pelvis_list	pelvis_rotation	pelvis_tx	pelvis_ty	pelvis_tz	hip_flexion_r	hip_adduction_r	hip_rotation_r	knee_angle_r	knee_angle_r_beta	ankle_angle_r	subtalar_angle_r	mtp_angle_r	hip_flexion_l	hip_adduction_l	hip_rotation_l	knee_angle_l	knee_angle_l_beta	ankle_angle_l	subtalar_angle_l	mtp_angle_l	lumbar_extension	lumbar_bending	lumbar_rotation	arm_flex_r	arm_add_r	arm_rot_r	elbow_flex_r	pro_sup_r	arm_flex_l	arm_add_l	arm_rot_l	elbow_flex_l	pro_sup_l
      2.80000000	    -26.11374665	     -6.99707346	      7.78458552	      0.62725081	      0.65143365	      0.23038833	     96.03012033	     -7.21377395	      6.69622977	    100.05518322	      1.74629238	     37.03980881	      3.58259089	     -7.49999987	     99.42454464	    -14.58530771	      9.11887627	     96.65187055	      1.68689337	     38.36114048	      7.11914943	     -7.49999987	    -35.67443702	      0.29173295	      6.57689737	     87.80018070	    -30.53815419	     15.82964695	    128.13124686	     75.68845438	     85.04111244	    -21.94966611	     24.34403323	    126.31072744	     88.47666818
      2.81666670	    -26.94990686	     -7.13682052	      7.77013461	      0.61807439	      0.63307352	      0.23705512	     97.80814167	     -7.53836636	      6.52447538	    101.56534355	      1.77264965	     37.68437455	      4.50906868	     -7.49999987	    101.19691115	    -14.81695430	      9.45935749	     97.89391094	      1.70857106	     38.79952868	      7.61320438	     -7.49999987	    -34.88372212	      0.06499892	      6.98981749	     90.63765057	    -30.28967464	     15.64552809	    127.46677999	     75.30016576	     87.18276102	    -21.74602058	     23.80661459	    126.03848057	     88.27221667
      2.83333330	    -27.61091367	     -7.34925644	      7.52914285	      0.63558174	      0.63421519	      0.23984022	     98.51148615	     -7.44432279	      6.16856471	    102.61132448	      1.79090546	     38.95092920	      5.10717296	     -7.49999987	    102.21238164	    -15.29761853	     10.05254155	     98.85223345	      1.72529695	     39.55888246	      8.30147795	     -7.49999987	    -33.94288822	     -0.36310583	      7.28284798	     90.59163158	    -29.63596065	     16.64115353	    127.69331075	     75.13231114	     86.80224668	    -21.39621931	     24.11981433	    126.25287366	     88.49196090
      2.85000000	    -28.63032015	     -7.92305218	      7.05855146	      0.65266957	      0.63766543	      0.24229315	     98.66812522	     -7.04034108	      5.37977848	    102.97029458	      1.79717067	     39.90352689	      5.39330565	     -7.49999987	    102.96344300	    -16.05504438	     10.93307657	     99.31288406	      1.73333682	     40.65175266	      9.39321827	     -7.49999987	    -32.27798961	     -0.22685271	      7.22689476	     89.85975320	    -28.23058052	     18.51405905	    126.82033918	     68.81046953	     85.53617483	    -22.61744322	     23.69736793	    126.76232969	     94.23835702
      2.86666670	    -28.97432475	     -8.06422348	      6.70554155	      0.66147234	      0.63997300	      0.23695828	     97.80842694	     -6.76202485	      4.88340012	    102.82955112	      1.79471424	     40.96845838	      5.35806207	     -7.49999987	    102.40029694	    -16.75679363	     11.14536226	     99.34713843	      1.73393467	     41.86431487	     10.17791135	     -7.49999987	    -31.25128273	     -0.23289125	      7.38474022	     88.89174420	    -28.22549750	     17.92350788	    126.79377625	     68.64996684	     85.59703016	    -21.64611156	     23.77034319	    126.96535229	     94.31801428
      2.88333330	    -29.17741601	     -8.08666747	      6.54444124	      0.66581904	      0.64144272	      0.23952461	     96.79011032	     -6.45643963	      4.51542454	    102.35947197	      1.78650981	     41.72597477	      5.17062853	     -7.49999987	    101.62532920	    -17.09465287	     11.20661997	     99.15447378	      1.73057204	     42.95026074	     10.54945674	     -7.49999987	    -30.00789572	     -0.33814908	      7.22000717	     88.61282347	    -27.91145267	     16.90561071	    125.89699834	     68.07387614	     85.88776898	    -21.26457557	     23.35518848	    126.55026473	     93.29694185
      2.90000000	    -29.42292579	     -8.23828789	      6.48135685	      0.66552956	      0.64918584	      0.24013015	     95.71018171	     -6.16099588	      4.00315342	    101.36757874	      1.76919800	     42.16819046	      4.47948062	     -7.49999987	    100.73697722	    -17.22283219	     11.15016569	     98.36236462	      1.71674712	     43.72783805	     10.65332111	     -7.49999987	    -28.98363628	     -0.11924724	      7.29821052	     89.06648969	    -27.25391227	     15.82201455	    124.39027984	     67.75491710	     86.75625667	    -21.29036237	     22.01821930	    124.76254155	     93.46891340
      2.91666670	    -29.60864017	     -7.99697682	      6.80745169	      0.65442693	      0.65308093	      0.23406656	     95.08681858	     -6.49164172	      4.06818780	    100.24817690	      1.74966076	     42.01659305	      4.35753215	     -7.49999987	     99.76618391	    -16.43859397	     10.51577434	     97.41295335	      1.70017677	     43.82277451	     10.00434218	     -7.49999987	    -28.52528103	      0.36236476	      7.06213259	     93.31570051	    -27.33583011	     16.60370601	    121.76320473	     67.82202133	     89.88614469	    -21.53581557	     21.84108597	    123.27393806	     93.67453552
      2.93333330	    -29.44078912	     -7.83644564	      7.18109343	      0.65492113	      0.66057368	      0.23326140	     94.13765074	     -6.60131170	      4.19910030	     99.08945866	      1.72943731	     41.76881672	      4.16216692	     -7.49999987	     98.56133257	    -15.34155175	     10.22191358	     96.41231151	      1.68271228	     43.53424306	      8.89972773	     -7.49999987	    -27.90014639	      0.89060899	      6.49747246	     96.67498381	    -27.40743303	     17.84150533	    119.62495204	     67.79677477	     93.02955705	    -22.53717876	     21.45945824	    122.05150603	     93.62892718
      2.95000000	    -29.04894658	     -7.86563696	      7.34253096	      0.65701955	      0.67265053	      0.23306483	     92.64088753	     -6.38547158	      4.13178598	     97.52822970	      1.70218872	     41.51319450	      4.00252049	     -7.49999987	     97.07667528	    -14.41965161	     10.25388971	     95.15978808	      1.66085162	     43.09138441	      7.76203191	     -7.49999987	    -27.74162891	      1.50310668	      6.13277365	    100.51714865	    -27.14105062	     20.23735109	    116.83037270	     67.08123678	     95.46248257	    -24.43795960	     21.60680966	    121.10652218	     89.77331341
      2.96666670	    -28.74709525	     -7.72575161	      7.58324412	      0.65783047	      0.68060333	      0.22618820	     91.14470189	     -6.53270913	      4.27198374	     95.92079372	      1.67413367	     41.26260548	      4.10000998	     -7.49999987	     95.53626399	    -13.29756224	     10.10719641	     93.89725579	      1.63881627	     42.36726973	      6.41180584	     -7.49999987	    -27.57722366	      1.89954747	      5.16173603	    104.14840362	    -27.61855040	     20.53444052	    114.31663909	     67.14159314	     99.86247011	    -26.75121624	     22.25914278	    119.77199428	     89.69294790
      2.98333330	    -28.23137815	     -7.79503242	      7.60493239	      0.68720628	      0.71275169	      0.21671554	     87.13130185	     -6.49115037	      3.94149946	     92.58371002	      1.61589057	     41.57015942	      3.95508095	     -7.49999987	     91.68797280	    -12.47016296	      9.93512318	     90.96332688	      1.58760955	     41.95247398	      5.34925860	     -7.49999987	    -27.17039648	      2.77923049	      4.04516459	    103.44113360	    -27.27330058	     20.65251135	    115.22924266	     67.26741273	     97.87056724	    -30.37273860	     20.88183769	    121.88969819	     87.97767599
      3.00000000	    -27.13817421	     -7.84650410	      7.53260663	      0.70949779	      0.73049893	      0.21584262	     81.98948324	     -6.03945478	      3.55976649	     88.95240845	      1.55251240	     41.98254457	      3.42829625	     -7.49999987	     86.69671283	    -12.26763895	      9.65806430	     87.57688473	      1.52850499	     41.68153427	      4.47119627	     -7.49999987	    -26.30859099	      3.15317745	      4.12819662	    102.84061073	    -28.76910795	     20.15889091	    117.44924398	     67.44575134	     96.15524166	    -33.48996464	     19.56571377	    122.98754686	     87.37818460
      3.01666670	    -26.09575101	     -7.60673708	      7.79031110	      0.71046456	      0.74107598	      0.21518954	     77.82204916	     -5.91465535	      3.34937966	     85.84357789	      1.49825308	     41.85922920	      2.62865643	     -7.49999987	     82.47395619	    -11.69493219	      9.44349008	     84.68563718	      1.47804320	     41.37572614	      3.31874561	     -7.49999987	    -25.28269234	      3.66115268	      3.14210792	    104.51709023	    -29.84289195	     20.22440788	    116.46954112	     67.76637838	     98.15099219	    -37.28993272	     18.13132297	    120.84387234	     87.01779385
